<svg width="742" height="720" viewBox="0 0 742 720" fill="none" xmlns="http://www.w3.org/2000/svg">
<path d="M181.621 173.743L84.4893 129.623L370.07 0L653.942 129.623L556.81 173.743L370.07 88.5815L181.621 173.743Z" fill="#121212"/>
<path d="M368.361 110.47L208.641 183.319L368.361 256.852L532.185 183.319L368.361 110.47Z" fill="#121212"/>
<path d="M207.956 439V206.918L232.923 217.52V414.862H305.43V405.286H242.841V222.993L369.044 279.083L494.221 222.993V405.286H431.975V414.862H504.824V217.52L529.107 206.918V439H405.982V326.281H331.081V439H207.956Z" fill="#121212"/>
<rect x="208.298" y="457.272" width="320.809" height="25.993" fill="#121212"/>
<path d="M159.732 162.456V248.099C166.171 250.933 170.677 257.461 170.677 265.061C170.677 272.631 166.206 279.135 159.809 281.987C164.386 291.985 172.728 313.935 172.729 323.202C172.729 339.619 171.019 349.195 164.179 360.482C165.319 354.097 166.914 345.091 165.204 334.147C164.6 330.283 165.203 350.906 143.657 360.482C135.107 364.282 115.499 361.964 110.482 361.508C116.525 357.86 126.602 345.098 135.107 330.727C145.026 313.968 143.885 292.421 145.025 283.187L145.032 281.87C138.773 278.96 134.423 272.528 134.423 265.061C134.423 257.521 138.858 251.037 145.214 248.167L145.71 156.3L159.732 162.456Z" fill="#121212"/>
<path d="M26.9783 612H8.25254V531.755H26.9783V612ZM137.08 531.755V612H120.667V565.846C120.667 564.782 120.686 563.625 120.723 562.377C120.796 561.128 120.906 559.862 121.053 558.576L99.7386 599.828C99.0777 601.113 98.1782 602.086 97.0399 602.747C95.9384 603.408 94.6717 603.739 93.2397 603.739H90.7062C89.2742 603.739 87.9891 603.408 86.8509 602.747C85.7494 602.086 84.8682 601.113 84.2073 599.828L62.8929 558.466C63.0031 559.788 63.0949 561.092 63.1683 562.377C63.2417 563.625 63.2784 564.782 63.2784 565.846V612H46.8658V531.755H61.0754C61.8832 531.755 62.5808 531.773 63.1683 531.81C63.7925 531.846 64.3432 531.956 64.8206 532.14C65.2979 532.324 65.7201 532.617 66.0873 533.021C66.4912 533.388 66.8767 533.921 67.2439 534.618L87.8973 575.32C88.6317 576.715 89.3293 578.165 89.9902 579.67C90.6878 581.176 91.3488 582.718 91.9729 584.297C92.5971 582.681 93.2397 581.102 93.9006 579.56C94.5982 578.018 95.3326 576.55 96.1036 575.154L116.702 534.618C117.069 533.921 117.436 533.388 117.804 533.021C118.207 532.617 118.648 532.324 119.125 532.14C119.603 531.956 120.135 531.846 120.723 531.81C121.347 531.773 122.063 531.755 122.87 531.755H137.08ZM235.772 571.85C235.772 577.651 234.762 583.048 232.742 588.042C230.76 593.036 227.951 597.387 224.316 601.095C220.681 604.767 216.293 607.649 211.153 609.742C206.049 611.835 200.376 612.881 194.134 612.881C187.892 612.881 182.201 611.835 177.061 609.742C171.92 607.649 167.514 604.767 163.843 601.095C160.208 597.387 157.38 593.036 155.361 588.042C153.378 583.048 152.387 577.651 152.387 571.85C152.387 566.048 153.378 560.651 155.361 555.657C157.38 550.664 160.208 546.331 163.843 542.66C167.514 538.988 171.92 536.106 177.061 534.013C182.201 531.92 187.892 530.873 194.134 530.873C200.376 530.873 206.049 531.938 211.153 534.068C216.293 536.161 220.681 539.043 224.316 542.715C227.951 546.386 230.76 550.719 232.742 555.713C234.762 560.706 235.772 566.085 235.772 571.85ZM216.715 571.85C216.715 567.884 216.201 564.323 215.173 561.165C214.145 557.971 212.658 555.272 210.712 553.069C208.803 550.866 206.453 549.177 203.662 548.002C200.872 546.827 197.696 546.239 194.134 546.239C190.536 546.239 187.323 546.827 184.496 548.002C181.705 549.177 179.337 550.866 177.391 553.069C175.482 555.272 174.013 557.971 172.985 561.165C171.957 564.323 171.443 567.884 171.443 571.85C171.443 575.852 171.957 579.45 172.985 582.645C174.013 585.802 175.482 588.483 177.391 590.686C179.337 592.889 181.705 594.578 184.496 595.753C187.323 596.891 190.536 597.46 194.134 597.46C197.696 597.46 200.872 596.891 203.662 595.753C206.453 594.578 208.803 592.889 210.712 590.686C212.658 588.483 214.145 585.802 215.173 582.645C216.201 579.45 216.715 575.852 216.715 571.85ZM282.856 597.956C285.316 597.956 287.317 597.644 288.86 597.019C290.438 596.395 291.668 595.587 292.55 594.596C293.431 593.605 294.037 592.485 294.367 591.236C294.698 589.988 294.863 588.721 294.863 587.436C294.863 585.967 294.661 584.646 294.257 583.471C293.89 582.296 293.229 581.304 292.274 580.497C291.356 579.689 290.126 579.065 288.584 578.624C287.042 578.183 285.096 577.963 282.746 577.963H269.748V597.956H282.856ZM269.748 545.689V565.516H279.442C281.498 565.516 283.352 565.369 285.004 565.075C286.656 564.782 288.052 564.268 289.19 563.533C290.365 562.799 291.246 561.789 291.834 560.504C292.458 559.219 292.77 557.603 292.77 555.657C292.77 553.748 292.531 552.169 292.054 550.921C291.577 549.636 290.842 548.608 289.851 547.837C288.86 547.066 287.593 546.515 286.051 546.184C284.545 545.854 282.746 545.689 280.653 545.689H269.748ZM280.653 531.755C286.198 531.755 290.916 532.269 294.808 533.297C298.7 534.325 301.876 535.775 304.336 537.648C306.796 539.52 308.577 541.797 309.678 544.477C310.816 547.157 311.386 550.15 311.386 553.454C311.386 555.254 311.129 556.998 310.614 558.687C310.1 560.339 309.293 561.899 308.191 563.368C307.09 564.8 305.676 566.122 303.95 567.334C302.225 568.545 300.15 569.592 297.727 570.473C303.014 571.758 306.924 573.832 309.458 576.696C311.991 579.56 313.258 583.269 313.258 587.822C313.258 591.236 312.597 594.412 311.275 597.35C309.954 600.287 308.008 602.857 305.437 605.06C302.904 607.227 299.765 608.934 296.019 610.182C292.274 611.394 287.997 612 283.187 612H251.133V531.755H280.653ZM348.057 612H329.332V531.755H348.057V612ZM416.302 597.13V612H367.945V531.755H386.561V597.13H416.302ZM448.949 612H430.224V531.755H448.949V612ZM511.245 581.323L503.81 559.348C503.259 557.952 502.672 556.318 502.048 554.446C501.423 552.536 500.799 550.48 500.175 548.277C499.624 550.517 499.037 552.592 498.413 554.501C497.788 556.41 497.201 558.062 496.65 559.458L489.27 581.323H511.245ZM540.821 612H526.391C524.776 612 523.472 611.633 522.481 610.898C521.489 610.127 520.737 609.154 520.223 607.979L515.486 593.99H484.974L480.238 607.979C479.834 609.008 479.099 609.944 478.035 610.788C477.007 611.596 475.721 612 474.179 612H459.639L490.702 531.755H509.758L540.821 612ZM525.455 509.173L507.665 524.87C507.225 525.274 506.803 525.586 506.399 525.806C505.995 526.027 505.573 526.192 505.132 526.302C504.691 526.412 504.214 526.486 503.7 526.522C503.223 526.559 502.672 526.577 502.048 526.577H489.601L500.01 511.707C500.45 511.119 500.873 510.66 501.277 510.33C501.717 509.963 502.176 509.706 502.654 509.559C503.168 509.375 503.737 509.265 504.361 509.229C505.022 509.192 505.774 509.173 506.619 509.173H525.455ZM577.66 569.481C580.193 569.481 582.341 569.169 584.104 568.545C585.903 567.884 587.372 566.985 588.51 565.846C589.648 564.708 590.474 563.386 590.988 561.881C591.502 560.339 591.759 558.687 591.759 556.924C591.759 553.399 590.603 550.646 588.289 548.663C586.013 546.68 582.47 545.689 577.66 545.689H570.17V569.481H577.66ZM617.204 612H600.351C597.23 612 594.99 610.825 593.632 608.475L580.303 585.178C579.679 584.187 578.982 583.471 578.211 583.03C577.44 582.553 576.338 582.314 574.906 582.314H570.17V612H551.554V531.755H577.66C583.461 531.755 588.4 532.36 592.475 533.572C596.588 534.747 599.929 536.399 602.499 538.529C605.106 540.658 606.997 543.174 608.172 546.074C609.347 548.975 609.934 552.133 609.934 555.547C609.934 558.154 609.585 560.614 608.888 562.927C608.19 565.241 607.162 567.389 605.804 569.371C604.445 571.317 602.756 573.061 600.737 574.604C598.754 576.146 596.459 577.412 593.852 578.404C595.064 579.028 596.202 579.817 597.267 580.772C598.332 581.69 599.286 582.791 600.131 584.077L617.204 612ZM647.08 612H628.355V531.755H647.08V612ZM709.376 581.323L701.941 559.348C701.39 557.952 700.803 556.318 700.179 554.446C699.554 552.536 698.93 550.48 698.306 548.277C697.755 550.517 697.168 552.592 696.544 554.501C695.919 556.41 695.332 558.062 694.781 559.458L687.401 581.323H709.376ZM738.952 612H724.522C722.907 612 721.603 611.633 720.612 610.898C719.62 610.127 718.868 609.154 718.354 607.979L713.617 593.99H683.105L678.369 607.979C677.965 609.008 677.23 609.944 676.166 610.788C675.138 611.596 673.852 612 672.31 612H657.77L688.833 531.755H707.889L738.952 612Z" fill="#121212"/>
<path d="M73.8883 663.061C73.8883 668.241 72.9866 673.028 71.1833 677.422C69.4128 681.783 66.9045 685.57 63.6585 688.783C60.4125 691.963 56.4944 694.455 51.9041 696.259C47.3466 698.029 42.2809 698.914 36.707 698.914H8.87027V627.257H36.707C42.2809 627.257 47.3466 628.158 51.9041 629.962C56.4944 631.765 60.4125 634.257 63.6585 637.437C66.9045 640.618 69.4128 644.405 71.1833 648.798C72.9866 653.159 73.8883 657.913 73.8883 663.061ZM56.8715 663.061C56.8715 659.52 56.4124 656.323 55.4944 653.471C54.5763 650.618 53.2484 648.208 51.5107 646.241C49.8057 644.241 47.7073 642.716 45.2154 641.667C42.7236 640.585 39.8874 640.044 36.707 640.044H25.592V686.127H36.707C39.8874 686.127 42.7236 685.602 45.2154 684.553C47.7073 683.471 49.8057 681.947 51.5107 679.979C53.2484 677.979 54.5763 675.553 55.4944 672.701C56.4124 669.848 56.8715 666.635 56.8715 663.061ZM153.045 663.061C153.045 668.241 152.144 673.061 150.34 677.52C148.57 681.979 146.061 685.865 142.815 689.176C139.569 692.455 135.651 695.029 131.061 696.898C126.504 698.767 121.438 699.701 115.864 699.701C110.29 699.701 105.208 698.767 100.618 696.898C96.0274 695.029 92.0929 692.455 88.8141 689.176C85.5681 685.865 83.0435 681.979 81.2402 677.52C79.4696 673.061 78.5844 668.241 78.5844 663.061C78.5844 657.88 79.4696 653.061 81.2402 648.602C83.0435 644.142 85.5681 640.273 88.8141 636.995C92.0929 633.716 96.0274 631.142 100.618 629.273C105.208 627.404 110.29 626.47 115.864 626.47C121.438 626.47 126.504 627.421 131.061 629.322C135.651 631.191 139.569 633.765 142.815 637.044C146.061 640.323 148.57 644.192 150.34 648.651C152.144 653.11 153.045 657.913 153.045 663.061ZM136.028 663.061C136.028 659.52 135.569 656.339 134.651 653.52C133.733 650.667 132.405 648.257 130.668 646.29C128.963 644.323 126.864 642.815 124.372 641.765C121.881 640.716 119.044 640.192 115.864 640.192C112.651 640.192 109.782 640.716 107.257 641.765C104.765 642.815 102.651 644.323 100.913 646.29C99.2078 648.257 97.8963 650.667 96.9783 653.52C96.0602 656.339 95.6012 659.52 95.6012 663.061C95.6012 666.635 96.0602 669.848 96.9783 672.701C97.8963 675.52 99.2078 677.914 100.913 679.881C102.651 681.848 104.765 683.357 107.257 684.406C109.782 685.422 112.651 685.93 115.864 685.93C119.044 685.93 121.881 685.422 124.372 684.406C126.864 683.357 128.963 681.848 130.668 679.881C132.405 677.914 133.733 675.52 134.651 672.701C135.569 669.848 136.028 666.635 136.028 663.061ZM208.905 662.422C213.233 662.422 216.348 661.389 218.25 659.323C220.152 657.258 221.103 654.372 221.103 650.667C221.103 649.028 220.857 647.536 220.365 646.192C219.873 644.847 219.119 643.7 218.102 642.749C217.119 641.765 215.856 641.011 214.315 640.487C212.807 639.962 211.004 639.7 208.905 639.7H200.25V662.422H208.905ZM208.905 627.257C213.955 627.257 218.283 627.863 221.889 629.076C225.529 630.257 228.513 631.896 230.84 633.995C233.201 636.093 234.939 638.569 236.054 641.421C237.168 644.274 237.726 647.356 237.726 650.667C237.726 654.241 237.152 657.52 236.005 660.504C234.857 663.487 233.103 666.045 230.742 668.176C228.381 670.307 225.381 671.979 221.742 673.192C218.135 674.373 213.856 674.963 208.905 674.963H200.25V698.914H183.626V627.257H208.905ZM268.488 660.946C270.751 660.946 272.669 660.667 274.242 660.11C275.849 659.52 277.161 658.717 278.177 657.7C279.193 656.684 279.931 655.503 280.39 654.159C280.849 652.782 281.079 651.307 281.079 649.733C281.079 646.585 280.046 644.126 277.98 642.356C275.947 640.585 272.783 639.7 268.488 639.7H261.799V660.946H268.488ZM303.801 698.914H288.751C285.964 698.914 283.964 697.865 282.751 695.767L270.849 674.963C270.291 674.078 269.669 673.438 268.98 673.045C268.291 672.619 267.308 672.405 266.029 672.405H261.799V698.914H245.176V627.257H268.488C273.669 627.257 278.079 627.798 281.718 628.88C285.39 629.929 288.374 631.404 290.669 633.306C292.997 635.208 294.686 637.454 295.735 640.044C296.784 642.634 297.309 645.454 297.309 648.503C297.309 650.831 296.997 653.028 296.374 655.094C295.751 657.159 294.833 659.077 293.62 660.848C292.407 662.586 290.899 664.143 289.095 665.52C287.325 666.897 285.275 668.028 282.948 668.914C284.03 669.471 285.046 670.176 285.997 671.028C286.948 671.848 287.8 672.832 288.554 673.979L303.801 698.914ZM377.92 663.061C377.92 668.241 377.019 673.061 375.215 677.52C373.445 681.979 370.936 685.865 367.69 689.176C364.444 692.455 360.526 695.029 355.936 696.898C351.379 698.767 346.313 699.701 340.739 699.701C335.165 699.701 330.083 698.767 325.493 696.898C320.902 695.029 316.968 692.455 313.689 689.176C310.443 685.865 307.918 681.979 306.115 677.52C304.345 673.061 303.459 668.241 303.459 663.061C303.459 657.88 304.345 653.061 306.115 648.602C307.918 644.142 310.443 640.273 313.689 636.995C316.968 633.716 320.902 631.142 325.493 629.273C330.083 627.404 335.165 626.47 340.739 626.47C346.313 626.47 351.379 627.421 355.936 629.322C360.526 631.191 364.444 633.765 367.69 637.044C370.936 640.323 373.445 644.192 375.215 648.651C377.019 653.11 377.92 657.913 377.92 663.061ZM360.903 663.061C360.903 659.52 360.444 656.339 359.526 653.52C358.608 650.667 357.28 648.257 355.543 646.29C353.838 644.323 351.739 642.815 349.247 641.765C346.756 640.716 343.919 640.192 340.739 640.192C337.526 640.192 334.657 640.716 332.132 641.765C329.64 642.815 327.526 644.323 325.788 646.29C324.083 648.257 322.771 650.667 321.853 653.52C320.935 656.339 320.476 659.52 320.476 663.061C320.476 666.635 320.935 669.848 321.853 672.701C322.771 675.52 324.083 677.914 325.788 679.881C327.526 681.848 329.64 683.357 332.132 684.406C334.657 685.422 337.526 685.93 340.739 685.93C343.919 685.93 346.756 685.422 349.247 684.406C351.739 683.357 353.838 681.848 355.543 679.881C357.28 677.914 358.608 675.52 359.526 672.701C360.444 669.848 360.903 666.635 360.903 663.061ZM403.441 640.044V658.192H427.933V671.028H403.441V698.914H386.719V627.257H432.851V640.044H403.441ZM458.171 640.044V656.766H480.696V669.061H458.171V686.127H487.581V698.914H441.449V627.257H487.581V640.044H458.171ZM536.442 641.815C535.951 642.601 535.426 643.192 534.869 643.585C534.344 643.979 533.655 644.175 532.803 644.175C532.049 644.175 531.229 643.946 530.344 643.487C529.491 642.995 528.508 642.454 527.393 641.864C526.311 641.274 525.065 640.749 523.655 640.29C522.245 639.798 520.639 639.552 518.835 639.552C515.721 639.552 513.393 640.224 511.852 641.569C510.343 642.88 509.589 644.667 509.589 646.929C509.589 648.372 510.048 649.569 510.966 650.52C511.884 651.47 513.081 652.29 514.557 652.979C516.065 653.667 517.77 654.307 519.671 654.897C521.606 655.454 523.573 656.094 525.573 656.815C527.573 657.503 529.524 658.323 531.426 659.274C533.36 660.225 535.065 661.438 536.541 662.913C538.049 664.389 539.262 666.192 540.18 668.323C541.098 670.422 541.557 672.963 541.557 675.947C541.557 679.258 540.983 682.357 539.836 685.242C538.688 688.127 537.016 690.652 534.819 692.816C532.655 694.947 529.967 696.636 526.754 697.881C523.573 699.095 519.95 699.701 515.884 699.701C513.655 699.701 511.376 699.472 509.048 699.013C506.753 698.554 504.524 697.914 502.36 697.095C500.196 696.242 498.163 695.242 496.261 694.095C494.359 692.947 492.704 691.668 491.294 690.258L496.212 682.488C496.605 681.93 497.114 681.471 497.736 681.111C498.392 680.717 499.097 680.52 499.851 680.52C500.835 680.52 501.819 680.832 502.802 681.455C503.819 682.078 504.95 682.766 506.196 683.52C507.474 684.275 508.933 684.963 510.573 685.586C512.212 686.209 514.147 686.521 516.376 686.521C519.393 686.521 521.737 685.865 523.409 684.553C525.081 683.209 525.918 681.094 525.918 678.209C525.918 676.537 525.459 675.176 524.54 674.127C523.622 673.078 522.409 672.209 520.901 671.52C519.426 670.832 517.737 670.225 515.835 669.7C513.934 669.176 511.983 668.602 509.983 667.979C507.983 667.323 506.032 666.536 504.13 665.618C502.228 664.668 500.523 663.438 499.015 661.93C497.54 660.389 496.343 658.487 495.425 656.225C494.507 653.93 494.048 651.11 494.048 647.765C494.048 645.077 494.589 642.454 495.671 639.896C496.753 637.339 498.343 635.06 500.441 633.06C502.54 631.06 505.114 629.47 508.163 628.29C511.212 627.076 514.704 626.47 518.639 626.47C520.835 626.47 522.967 626.65 525.032 627.011C527.131 627.339 529.114 627.847 530.983 628.535C532.852 629.191 534.59 629.995 536.196 630.945C537.836 631.863 539.295 632.913 540.574 634.093L536.442 641.815ZM589.923 641.815C589.432 642.601 588.907 643.192 588.35 643.585C587.825 643.979 587.137 644.175 586.284 644.175C585.53 644.175 584.71 643.946 583.825 643.487C582.972 642.995 581.989 642.454 580.874 641.864C579.792 641.274 578.546 640.749 577.136 640.29C575.726 639.798 574.12 639.552 572.316 639.552C569.202 639.552 566.874 640.224 565.333 641.569C563.824 642.88 563.07 644.667 563.07 646.929C563.07 648.372 563.529 649.569 564.447 650.52C565.365 651.47 566.562 652.29 568.038 652.979C569.546 653.667 571.251 654.307 573.153 654.897C575.087 655.454 577.054 656.094 579.054 656.815C581.054 657.503 583.005 658.323 584.907 659.274C586.841 660.225 588.546 661.438 590.022 662.913C591.53 664.389 592.743 666.192 593.661 668.323C594.579 670.422 595.038 672.963 595.038 675.947C595.038 679.258 594.465 682.357 593.317 685.242C592.169 688.127 590.497 690.652 588.3 692.816C586.136 694.947 583.448 696.636 580.235 697.881C577.054 699.095 573.431 699.701 569.366 699.701C567.136 699.701 564.857 699.472 562.529 699.013C560.234 698.554 558.005 697.914 555.841 697.095C553.677 696.242 551.644 695.242 549.742 694.095C547.84 692.947 546.185 691.668 544.775 690.258L549.693 682.488C550.086 681.93 550.595 681.471 551.218 681.111C551.873 680.717 552.578 680.52 553.332 680.52C554.316 680.52 555.3 680.832 556.283 681.455C557.3 682.078 558.431 682.766 559.677 683.52C560.956 684.275 562.415 684.963 564.054 685.586C565.693 686.209 567.628 686.521 569.857 686.521C572.874 686.521 575.218 685.865 576.89 684.553C578.563 683.209 579.399 681.094 579.399 678.209C579.399 676.537 578.94 675.176 578.022 674.127C577.103 673.078 575.89 672.209 574.382 671.52C572.907 670.832 571.218 670.225 569.316 669.7C567.415 669.176 565.464 668.602 563.464 667.979C561.464 667.323 559.513 666.536 557.611 665.618C555.709 664.668 554.005 663.438 552.496 661.93C551.021 660.389 549.824 658.487 548.906 656.225C547.988 653.93 547.529 651.11 547.529 647.765C547.529 645.077 548.07 642.454 549.152 639.896C550.234 637.339 551.824 635.06 553.923 633.06C556.021 631.06 558.595 629.47 561.644 628.29C564.693 627.076 568.185 626.47 572.12 626.47C574.317 626.47 576.448 626.65 578.513 627.011C580.612 627.339 582.595 627.847 584.464 628.535C586.333 629.191 588.071 629.995 589.678 630.945C591.317 631.863 592.776 632.913 594.055 634.093L589.923 641.815ZM674.143 663.061C674.143 668.241 673.241 673.061 671.438 677.52C669.668 681.979 667.159 685.865 663.913 689.176C660.667 692.455 656.749 695.029 652.159 696.898C647.601 698.767 642.536 699.701 636.962 699.701C631.388 699.701 626.306 698.767 621.716 696.898C617.125 695.029 613.191 692.455 609.912 689.176C606.666 685.865 604.141 681.979 602.338 677.52C600.567 673.061 599.682 668.241 599.682 663.061C599.682 657.88 600.567 653.061 602.338 648.602C604.141 644.142 606.666 640.273 609.912 636.995C613.191 633.716 617.125 631.142 621.716 629.273C626.306 627.404 631.388 626.47 636.962 626.47C642.536 626.47 647.601 627.421 652.159 629.322C656.749 631.191 660.667 633.765 663.913 637.044C667.159 640.323 669.668 644.192 671.438 648.651C673.241 653.11 674.143 657.913 674.143 663.061ZM657.126 663.061C657.126 659.52 656.667 656.339 655.749 653.52C654.831 650.667 653.503 648.257 651.765 646.29C650.061 644.323 647.962 642.815 645.47 641.765C642.978 640.716 640.142 640.192 636.962 640.192C633.749 640.192 630.88 640.716 628.355 641.765C625.863 642.815 623.748 644.323 622.011 646.29C620.306 648.257 618.994 650.667 618.076 653.52C617.158 656.339 616.699 659.52 616.699 663.061C616.699 666.635 617.158 669.848 618.076 672.701C618.994 675.52 620.306 677.914 622.011 679.881C623.748 681.848 625.863 683.357 628.355 684.406C630.88 685.422 633.749 685.93 636.962 685.93C640.142 685.93 642.978 685.422 645.47 684.406C647.962 683.357 650.061 681.848 651.765 679.881C653.503 677.914 654.831 675.52 655.749 672.701C656.667 669.848 657.126 666.635 657.126 663.061ZM706.254 660.946C708.516 660.946 710.434 660.667 712.008 660.11C713.615 659.52 714.926 658.717 715.943 657.7C716.959 656.684 717.697 655.503 718.156 654.159C718.615 652.782 718.844 651.307 718.844 649.733C718.844 646.585 717.812 644.126 715.746 642.356C713.713 640.585 710.549 639.7 706.254 639.7H699.565V660.946H706.254ZM741.566 698.914H726.517C723.73 698.914 721.73 697.865 720.517 695.767L708.615 674.963C708.057 674.078 707.434 673.438 706.746 673.045C706.057 672.619 705.074 672.405 703.795 672.405H699.565V698.914H682.942V627.257H706.254C711.434 627.257 715.844 627.798 719.484 628.88C723.156 629.929 726.14 631.404 728.435 633.306C730.763 635.208 732.451 637.454 733.501 640.044C734.55 642.634 735.074 645.454 735.074 648.503C735.074 650.831 734.763 653.028 734.14 655.094C733.517 657.159 732.599 659.077 731.386 660.848C730.173 662.586 728.664 664.143 726.861 665.52C725.091 666.897 723.041 668.028 720.713 668.914C721.795 669.471 722.812 670.176 723.763 671.028C724.713 671.848 725.566 672.832 726.32 673.979L741.566 698.914Z" fill="#121212"/>
</svg>
